# xmcd
#
# Track frame offsets: 
#        150
#        18569
#        44821
#        62091
#        78626
#        97851
#        123139
#        148111
#        167654
#        183353
#        208426
#        216224
#
# Disc length: 3139 seconds
#
# Revision: 0
# Processed by: cddbd v1.5.1PL2 Copyright (c) Steve Scherf et al.
# Submitted via: ExactAudioCopy v0.95b3
#
DISCID=b20c410c
DTITLE=Various Artist - New York
DYEAR=2005
DGENRE=
TTITLE0=Keely Smith/New York, New York
TTITLE1=Brooklyn Funk Essentials/Take the L Train (To Brooklyn)
TTITLE2=Ella Fitzgerald and Duke Ellington and His Orchestra/Drop Me Off
TTITLE2=in Harlem
TTITLE3=Slow Train Soul/Inna City Woman (Varano Remix)
TTITLE4=Mo' Horizons/Soho Vibes
TTITLE5=Barrio Jazz Gang/Chok-a-Block Avenue
TTITLE6=Oleta Adams/New York State of Mind
TTITLE7=Positive Flow/The City Streets (Bay Smooth Jazz Edit)
TTITLE8=Stephen Bishop/Little Italy
TTITLE9=Joyce Cooling/East Side
TTITLE10=Shirley Horn/Sunday in New York
TTITLE11=Blossom Dearir/Manhattan
EXTD=
EXTT0=
EXTT1=
EXTT2=
EXTT3=
EXTT4=
EXTT5=
EXTT6=
EXTT7=
EXTT8=
EXTT9=
EXTT10=
EXTT11=
PLAYORDER=
